<?xml version="1.0" encoding="UTF-8" standalone="no"?>
<!DOCTYPE svg PUBLIC "-//W3C//DTD SVG 1.1//EN" "http://www.w3.org/Graphics/SVG/1.1/DTD/svg11.dtd">
<svg width="100%" height="100%" viewBox="0 0 381 35" version="1.1" xmlns="http://www.w3.org/2000/svg" xmlns:xlink="http://www.w3.org/1999/xlink" xml:space="preserve" style="fill-rule:evenodd;clip-rule:evenodd;stroke-linejoin:round;stroke-miterlimit:1.41421;">
    <g transform="matrix(1,0,0,1,-256.171,-156.756)">
        <path d="M265.495,185.052C264.199,185.028 263.125,184.884 262.273,184.62C261.421,184.356 260.743,183.978 260.239,183.486C259.735,182.994 259.381,182.382 259.177,181.65C258.973,180.918 258.871,180.084 258.871,179.148L258.871,157.476L263.227,156.756L263.227,178.32C263.227,178.848 263.269,179.292 263.353,179.652C263.437,180.012 263.587,180.318 263.803,180.57C264.019,180.822 264.313,181.014 264.685,181.146C265.057,181.278 265.531,181.38 266.107,181.452L265.495,185.052Z" style="fill:url(#_Linear1);fill-rule:nonzero;"/>
        <path d="M279.427,184.692L275.071,184.692L275.071,165.864L279.427,165.864L279.427,184.692ZM279.895,160.356C279.895,161.172 279.631,161.82 279.103,162.3C278.575,162.78 277.951,163.02 277.231,163.02C276.487,163.02 275.851,162.78 275.323,162.3C274.795,161.82 274.531,161.172 274.531,160.356C274.531,159.516 274.795,158.856 275.323,158.376C275.851,157.896 276.487,157.656 277.231,157.656C277.951,157.656 278.575,157.896 279.103,158.376C279.631,158.856 279.895,159.516 279.895,160.356Z" style="fill:url(#_Linear2);fill-rule:nonzero;"/>
        <path d="M293.791,174.792C293.791,176.64 294.193,177.99 294.997,178.842C295.801,179.694 296.839,180.12 298.111,180.12C298.807,180.12 299.461,180.024 300.073,179.832C300.685,179.64 301.183,179.412 301.567,179.148L301.567,169.392C301.255,169.32 300.871,169.254 300.415,169.194C299.959,169.134 299.383,169.104 298.687,169.104C297.103,169.104 295.891,169.626 295.051,170.67C294.211,171.714 293.791,173.088 293.791,174.792ZM305.923,182.784C305.923,185.784 305.161,187.98 303.637,189.372C302.113,190.764 299.779,191.46 296.635,191.46C295.483,191.46 294.361,191.364 293.269,191.172C292.177,190.98 291.187,190.728 290.299,190.416L291.091,186.708C291.835,187.02 292.681,187.272 293.629,187.464C294.577,187.656 295.603,187.752 296.707,187.752C298.459,187.752 299.707,187.392 300.451,186.672C301.195,185.952 301.567,184.884 301.567,183.468L301.567,182.748C301.135,182.964 300.565,183.18 299.857,183.396C299.149,183.612 298.339,183.72 297.427,183.72C296.227,183.72 295.129,183.528 294.133,183.144C293.137,182.76 292.285,182.196 291.577,181.452C290.869,180.708 290.317,179.778 289.921,178.662C289.525,177.546 289.327,176.256 289.327,174.792C289.327,173.424 289.537,172.164 289.957,171.012C290.377,169.86 290.989,168.876 291.793,168.06C292.597,167.244 293.575,166.608 294.727,166.152C295.879,165.696 297.187,165.468 298.651,165.468C300.067,165.468 301.411,165.576 302.683,165.792C303.955,166.008 305.035,166.236 305.923,166.476L305.923,182.784Z" style="fill:url(#_Linear3);fill-rule:nonzero;"/>
        <path d="M316.867,184.692L316.867,157.476L321.223,156.756L321.223,166.08C321.703,165.912 322.261,165.768 322.897,165.648C323.533,165.528 324.163,165.468 324.787,165.468C326.299,165.468 327.553,165.678 328.549,166.098C329.545,166.518 330.343,167.106 330.943,167.862C331.543,168.618 331.969,169.524 332.221,170.58C332.473,171.636 332.599,172.812 332.599,174.108L332.599,184.692L328.243,184.692L328.243,174.792C328.243,173.784 328.177,172.926 328.045,172.218C327.913,171.51 327.697,170.934 327.397,170.49C327.097,170.046 326.695,169.722 326.191,169.518C325.687,169.314 325.063,169.212 324.319,169.212C323.743,169.212 323.155,169.272 322.555,169.392C321.955,169.512 321.511,169.62 321.223,169.716L321.223,184.692L316.867,184.692Z" style="fill:url(#_Linear4);fill-rule:nonzero;"/>
        <path d="M343.003,160.896L347.359,160.176L347.359,165.864L354.055,165.864L354.055,169.5L347.359,169.5L347.359,177.168C347.359,178.68 347.599,179.76 348.079,180.408C348.559,181.056 349.375,181.38 350.527,181.38C351.319,181.38 352.021,181.296 352.633,181.128C353.245,180.96 353.731,180.804 354.091,180.66L354.811,184.116C354.307,184.332 353.647,184.554 352.831,184.782C352.015,185.01 351.055,185.124 349.951,185.124C348.607,185.124 347.485,184.944 346.585,184.584C345.685,184.224 344.971,183.702 344.443,183.018C343.915,182.334 343.543,181.506 343.327,180.534C343.111,179.562 343.003,178.452 343.003,177.204L343.003,160.896Z" style="fill:url(#_Linear5);fill-rule:nonzero;"/>
        <path d="M368.383,181.56C369.535,181.56 370.375,181.422 370.903,181.146C371.431,180.87 371.695,180.396 371.695,179.724C371.695,179.1 371.413,178.584 370.849,178.176C370.285,177.768 369.355,177.324 368.059,176.844C367.267,176.556 366.541,176.25 365.881,175.926C365.221,175.602 364.651,175.224 364.171,174.792C363.691,174.36 363.313,173.838 363.037,173.226C362.761,172.614 362.623,171.864 362.623,170.976C362.623,169.248 363.259,167.886 364.531,166.89C365.803,165.894 367.531,165.396 369.715,165.396C370.819,165.396 371.875,165.498 372.883,165.702C373.891,165.906 374.647,166.104 375.151,166.296L374.359,169.824C373.879,169.608 373.267,169.41 372.523,169.23C371.779,169.05 370.915,168.96 369.931,168.96C369.043,168.96 368.323,169.11 367.771,169.41C367.219,169.71 366.943,170.172 366.943,170.796C366.943,171.108 366.997,171.384 367.105,171.624C367.213,171.864 367.399,172.086 367.663,172.29C367.927,172.494 368.275,172.698 368.707,172.902C369.139,173.106 369.667,173.316 370.291,173.532C371.323,173.916 372.199,174.294 372.919,174.666C373.639,175.038 374.233,175.458 374.701,175.926C375.169,176.394 375.511,176.928 375.727,177.528C375.943,178.128 376.051,178.848 376.051,179.688C376.051,181.488 375.385,182.85 374.053,183.774C372.721,184.698 370.819,185.16 368.347,185.16C366.691,185.16 365.359,185.022 364.351,184.746C363.343,184.47 362.635,184.248 362.227,184.08L362.983,180.444C363.631,180.708 364.405,180.96 365.305,181.2C366.205,181.44 367.231,181.56 368.383,181.56Z" style="fill:url(#_Linear6);fill-rule:nonzero;"/>
        <path d="M396.751,172.848C396.199,174.96 395.605,177.018 394.969,179.022C394.333,181.026 393.703,182.916 393.079,184.692L389.515,184.692C389.035,183.588 388.531,182.328 388.003,180.912C387.475,179.496 386.947,177.984 386.419,176.376C385.891,174.768 385.363,173.076 384.835,171.3C384.307,169.524 383.791,167.712 383.287,165.864L387.895,165.864C388.111,166.872 388.363,167.958 388.651,169.122C388.939,170.286 389.239,171.474 389.551,172.686C389.863,173.898 390.187,175.08 390.523,176.232C390.859,177.384 391.195,178.44 391.531,179.4C391.891,178.296 392.245,177.156 392.593,175.98C392.941,174.804 393.271,173.628 393.583,172.452C393.895,171.276 394.189,170.13 394.465,169.014C394.741,167.898 394.987,166.848 395.203,165.864L398.551,165.864C398.767,166.848 399.007,167.898 399.271,169.014C399.535,170.13 399.817,171.276 400.117,172.452C400.417,173.628 400.741,174.804 401.089,175.98C401.437,177.156 401.791,178.296 402.151,179.4C402.463,178.44 402.787,177.384 403.123,176.232C403.459,175.08 403.789,173.898 404.113,172.686C404.437,171.474 404.743,170.286 405.031,169.122C405.319,167.958 405.571,166.872 405.787,165.864L410.287,165.864C409.783,167.712 409.267,169.524 408.739,171.3C408.211,173.076 407.683,174.768 407.155,176.376C406.627,177.984 406.099,179.496 405.571,180.912C405.043,182.328 404.527,183.588 404.023,184.692L400.495,184.692C399.871,182.916 399.229,181.026 398.569,179.022C397.909,177.018 397.303,174.96 396.751,172.848Z" style="fill:url(#_Linear7);fill-rule:nonzero;"/>
        <path d="M423.391,184.692L419.035,184.692L419.035,165.864L423.391,165.864L423.391,184.692ZM423.859,160.356C423.859,161.172 423.595,161.82 423.067,162.3C422.539,162.78 421.915,163.02 421.195,163.02C420.451,163.02 419.815,162.78 419.287,162.3C418.759,161.82 418.495,161.172 418.495,160.356C418.495,159.516 418.759,158.856 419.287,158.376C419.815,157.896 420.451,157.656 421.195,157.656C421.915,157.656 422.539,157.896 423.067,158.376C423.595,158.856 423.859,159.516 423.859,160.356Z" style="fill:url(#_Linear8);fill-rule:nonzero;"/>
        <path d="M434.119,160.896L438.475,160.176L438.475,165.864L445.171,165.864L445.171,169.5L438.475,169.5L438.475,177.168C438.475,178.68 438.715,179.76 439.195,180.408C439.675,181.056 440.491,181.38 441.643,181.38C442.435,181.38 443.137,181.296 443.749,181.128C444.361,180.96 444.847,180.804 445.207,180.66L445.927,184.116C445.423,184.332 444.763,184.554 443.947,184.782C443.131,185.01 442.171,185.124 441.067,185.124C439.723,185.124 438.601,184.944 437.701,184.584C436.801,184.224 436.087,183.702 435.559,183.018C435.031,182.334 434.659,181.506 434.443,180.534C434.227,179.562 434.119,178.452 434.119,177.204L434.119,160.896Z" style="fill:url(#_Linear9);fill-rule:nonzero;"/>
        <path d="M453.343,175.296C453.343,173.904 453.559,172.602 453.991,171.39C454.423,170.178 455.041,169.128 455.845,168.24C456.649,167.352 457.627,166.656 458.779,166.152C459.931,165.648 461.227,165.396 462.667,165.396C464.443,165.396 466.123,165.72 467.707,166.368L466.771,169.932C466.267,169.716 465.697,169.536 465.061,169.392C464.425,169.248 463.747,169.176 463.027,169.176C461.323,169.176 460.027,169.71 459.139,170.778C458.251,171.846 457.807,173.352 457.807,175.296C457.807,177.168 458.227,178.65 459.067,179.742C459.907,180.834 461.323,181.38 463.315,181.38C464.059,181.38 464.791,181.308 465.511,181.164C466.231,181.02 466.855,180.84 467.383,180.624L467.995,184.224C467.515,184.464 466.789,184.68 465.817,184.872C464.845,185.064 463.843,185.16 462.811,185.16C461.203,185.16 459.805,184.914 458.617,184.422C457.429,183.93 456.445,183.246 455.665,182.37C454.885,181.494 454.303,180.45 453.919,179.238C453.535,178.026 453.343,176.712 453.343,175.296Z" style="fill:url(#_Linear10);fill-rule:nonzero;"/>
        <path d="M476.779,184.692L476.779,157.476L481.135,156.756L481.135,166.08C481.615,165.912 482.173,165.768 482.809,165.648C483.445,165.528 484.075,165.468 484.699,165.468C486.211,165.468 487.465,165.678 488.461,166.098C489.457,166.518 490.255,167.106 490.855,167.862C491.455,168.618 491.881,169.524 492.133,170.58C492.385,171.636 492.511,172.812 492.511,174.108L492.511,184.692L488.155,184.692L488.155,174.792C488.155,173.784 488.089,172.926 487.957,172.218C487.825,171.51 487.609,170.934 487.309,170.49C487.009,170.046 486.607,169.722 486.103,169.518C485.599,169.314 484.975,169.212 484.231,169.212C483.655,169.212 483.067,169.272 482.467,169.392C481.867,169.512 481.423,169.62 481.135,169.716L481.135,184.692L476.779,184.692Z" style="fill:url(#_Linear11);fill-rule:nonzero;"/>
        <path d="M508.027,182.316C508.027,183.156 507.745,183.84 507.181,184.368C506.617,184.896 505.939,185.16 505.147,185.16C504.331,185.16 503.647,184.896 503.095,184.368C502.543,183.84 502.267,183.156 502.267,182.316C502.267,181.476 502.543,180.786 503.095,180.246C503.647,179.706 504.331,179.436 505.147,179.436C505.939,179.436 506.617,179.706 507.181,180.246C507.745,180.786 508.027,181.476 508.027,182.316Z" style="fill:rgb(205,205,205);fill-rule:nonzero;"/>
        <path d="M522.823,181.56C523.975,181.56 524.815,181.422 525.343,181.146C525.871,180.87 526.135,180.396 526.135,179.724C526.135,179.1 525.853,178.584 525.289,178.176C524.725,177.768 523.795,177.324 522.499,176.844C521.707,176.556 520.981,176.25 520.321,175.926C519.661,175.602 519.091,175.224 518.611,174.792C518.131,174.36 517.753,173.838 517.477,173.226C517.201,172.614 517.063,171.864 517.063,170.976C517.063,169.248 517.699,167.886 518.971,166.89C520.243,165.894 521.971,165.396 524.155,165.396C525.259,165.396 526.315,165.498 527.323,165.702C528.331,165.906 529.087,166.104 529.591,166.296L528.799,169.824C528.319,169.608 527.707,169.41 526.963,169.23C526.219,169.05 525.355,168.96 524.371,168.96C523.483,168.96 522.763,169.11 522.211,169.41C521.659,169.71 521.383,170.172 521.383,170.796C521.383,171.108 521.437,171.384 521.545,171.624C521.653,171.864 521.839,172.086 522.103,172.29C522.367,172.494 522.715,172.698 523.147,172.902C523.579,173.106 524.107,173.316 524.731,173.532C525.763,173.916 526.639,174.294 527.359,174.666C528.079,175.038 528.673,175.458 529.141,175.926C529.609,176.394 529.951,176.928 530.167,177.528C530.383,178.128 530.491,178.848 530.491,179.688C530.491,181.488 529.825,182.85 528.493,183.774C527.161,184.698 525.259,185.16 522.787,185.16C521.131,185.16 519.799,185.022 518.791,184.746C517.783,184.47 517.075,184.248 516.667,184.08L517.423,180.444C518.071,180.708 518.845,180.96 519.745,181.2C520.645,181.44 521.671,181.56 522.823,181.56Z" style="fill:rgb(205,205,205);fill-rule:nonzero;"/>
        <path d="M552.451,175.368C552.451,173.424 552.013,171.912 551.137,170.832C550.261,169.752 548.851,169.212 546.907,169.212C546.499,169.212 546.073,169.23 545.629,169.266C545.185,169.302 544.747,169.38 544.315,169.5L544.315,180.264C544.699,180.528 545.209,180.774 545.845,181.002C546.481,181.23 547.159,181.344 547.879,181.344C549.463,181.344 550.621,180.804 551.353,179.724C552.085,178.644 552.451,177.192 552.451,175.368ZM556.915,175.296C556.915,176.736 556.729,178.056 556.357,179.256C555.985,180.456 555.451,181.488 554.755,182.352C554.059,183.216 553.189,183.888 552.145,184.368C551.101,184.848 549.919,185.088 548.599,185.088C547.711,185.088 546.895,184.98 546.151,184.764C545.407,184.548 544.795,184.308 544.315,184.044L544.315,191.352L539.959,191.352L539.959,166.476C540.847,166.236 541.939,166.008 543.235,165.792C544.531,165.576 545.899,165.468 547.339,165.468C548.827,165.468 550.159,165.696 551.335,166.152C552.511,166.608 553.513,167.262 554.341,168.114C555.169,168.966 555.805,169.998 556.249,171.21C556.693,172.422 556.915,173.784 556.915,175.296Z" style="fill:rgb(205,205,205);fill-rule:nonzero;"/>
        <path d="M573.439,181.632C574.783,181.632 575.803,181.56 576.499,181.416L576.499,176.592C576.259,176.52 575.911,176.448 575.455,176.376C574.999,176.304 574.495,176.268 573.943,176.268C573.463,176.268 572.977,176.304 572.485,176.376C571.993,176.448 571.549,176.58 571.153,176.772C570.757,176.964 570.439,177.234 570.199,177.582C569.959,177.93 569.839,178.368 569.839,178.896C569.839,179.928 570.163,180.642 570.811,181.038C571.459,181.434 572.335,181.632 573.439,181.632ZM573.079,165.396C574.519,165.396 575.731,165.576 576.715,165.936C577.699,166.296 578.485,166.8 579.073,167.448C579.661,168.096 580.081,168.882 580.333,169.806C580.585,170.73 580.711,171.744 580.711,172.848L580.711,184.26C580.039,184.404 579.025,184.578 577.669,184.782C576.313,184.986 574.783,185.088 573.079,185.088C571.951,185.088 570.919,184.98 569.983,184.764C569.047,184.548 568.249,184.2 567.589,183.72C566.929,183.24 566.413,182.616 566.041,181.848C565.669,181.08 565.483,180.132 565.483,179.004C565.483,177.924 565.693,177.012 566.113,176.268C566.533,175.524 567.103,174.918 567.823,174.45C568.543,173.982 569.377,173.646 570.325,173.442C571.273,173.238 572.263,173.136 573.295,173.136C573.775,173.136 574.279,173.166 574.807,173.226C575.335,173.286 575.899,173.388 576.499,173.532L576.499,172.812C576.499,172.308 576.439,171.828 576.319,171.372C576.199,170.916 575.989,170.514 575.689,170.166C575.389,169.818 574.993,169.548 574.501,169.356C574.009,169.164 573.391,169.068 572.647,169.068C571.639,169.068 570.715,169.14 569.875,169.284C569.035,169.428 568.351,169.596 567.823,169.788L567.283,166.26C567.835,166.068 568.639,165.876 569.695,165.684C570.751,165.492 571.879,165.396 573.079,165.396Z" style="fill:rgb(205,205,205);fill-rule:nonzero;"/>
        <path d="M590.395,175.296C590.395,173.904 590.611,172.602 591.043,171.39C591.475,170.178 592.093,169.128 592.897,168.24C593.701,167.352 594.679,166.656 595.831,166.152C596.983,165.648 598.279,165.396 599.719,165.396C601.495,165.396 603.175,165.72 604.759,166.368L603.823,169.932C603.319,169.716 602.749,169.536 602.113,169.392C601.477,169.248 600.799,169.176 600.079,169.176C598.375,169.176 597.079,169.71 596.191,170.778C595.303,171.846 594.859,173.352 594.859,175.296C594.859,177.168 595.279,178.65 596.119,179.742C596.959,180.834 598.375,181.38 600.367,181.38C601.111,181.38 601.843,181.308 602.563,181.164C603.283,181.02 603.907,180.84 604.435,180.624L605.047,184.224C604.567,184.464 603.841,184.68 602.869,184.872C601.897,185.064 600.895,185.16 599.863,185.16C598.255,185.16 596.857,184.914 595.669,184.422C594.481,183.93 593.497,183.246 592.717,182.37C591.937,181.494 591.355,180.45 590.971,179.238C590.587,178.026 590.395,176.712 590.395,175.296Z" style="fill:rgb(205,205,205);fill-rule:nonzero;"/>
        <path d="M612.787,175.368C612.787,173.712 613.033,172.26 613.525,171.012C614.017,169.764 614.671,168.726 615.487,167.898C616.303,167.07 617.239,166.446 618.295,166.026C619.351,165.606 620.431,165.396 621.535,165.396C624.127,165.396 626.149,166.2 627.601,167.808C629.053,169.416 629.779,171.816 629.779,175.008C629.779,175.248 629.773,175.518 629.761,175.818C629.749,176.118 629.731,176.388 629.707,176.628L617.287,176.628C617.407,178.14 617.941,179.31 618.889,180.138C619.837,180.966 621.211,181.38 623.011,181.38C624.067,181.38 625.033,181.284 625.909,181.092C626.785,180.9 627.475,180.696 627.979,180.48L628.555,184.044C628.315,184.164 627.985,184.29 627.565,184.422C627.145,184.554 626.665,184.674 626.125,184.782C625.585,184.89 625.003,184.98 624.379,185.052C623.755,185.124 623.119,185.16 622.471,185.16C620.815,185.16 619.375,184.914 618.151,184.422C616.927,183.93 615.919,183.246 615.127,182.37C614.335,181.494 613.747,180.462 613.363,179.274C612.979,178.086 612.787,176.784 612.787,175.368ZM625.423,173.424C625.423,172.824 625.339,172.254 625.171,171.714C625.003,171.174 624.757,170.706 624.433,170.31C624.109,169.914 623.713,169.602 623.245,169.374C622.777,169.146 622.219,169.032 621.571,169.032C620.899,169.032 620.311,169.158 619.807,169.41C619.303,169.662 618.877,169.992 618.529,170.4C618.181,170.808 617.911,171.276 617.719,171.804C617.527,172.332 617.395,172.872 617.323,173.424L625.423,173.424Z" style="fill:rgb(205,205,205);fill-rule:nonzero;"/>
    </g>
    <defs>
        <linearGradient id="_Linear1" x1="0" y1="0" x2="1" y2="0" gradientUnits="userSpaceOnUse" gradientTransform="matrix(44.4014,124.308,-124.308,44.4014,413.941,114.027)"><stop offset="0%" style="stop-color:rgb(255,0,85);stop-opacity:1"/><stop offset="100%" style="stop-color:rgb(255,149,0);stop-opacity:1"/></linearGradient>
        <linearGradient id="_Linear2" x1="0" y1="0" x2="1" y2="0" gradientUnits="userSpaceOnUse" gradientTransform="matrix(44.4014,124.308,-124.308,44.4014,413.941,114.027)"><stop offset="0%" style="stop-color:rgb(255,0,85);stop-opacity:1"/><stop offset="100%" style="stop-color:rgb(255,149,0);stop-opacity:1"/></linearGradient>
        <linearGradient id="_Linear3" x1="0" y1="0" x2="1" y2="0" gradientUnits="userSpaceOnUse" gradientTransform="matrix(44.4014,124.308,-124.308,44.4014,413.941,114.027)"><stop offset="0%" style="stop-color:rgb(255,0,85);stop-opacity:1"/><stop offset="100%" style="stop-color:rgb(255,149,0);stop-opacity:1"/></linearGradient>
        <linearGradient id="_Linear4" x1="0" y1="0" x2="1" y2="0" gradientUnits="userSpaceOnUse" gradientTransform="matrix(44.4014,124.308,-124.308,44.4014,413.941,114.027)"><stop offset="0%" style="stop-color:rgb(255,0,85);stop-opacity:1"/><stop offset="100%" style="stop-color:rgb(255,149,0);stop-opacity:1"/></linearGradient>
        <linearGradient id="_Linear5" x1="0" y1="0" x2="1" y2="0" gradientUnits="userSpaceOnUse" gradientTransform="matrix(44.4014,124.308,-124.308,44.4014,413.941,114.027)"><stop offset="0%" style="stop-color:rgb(255,0,85);stop-opacity:1"/><stop offset="100%" style="stop-color:rgb(255,149,0);stop-opacity:1"/></linearGradient>
        <linearGradient id="_Linear6" x1="0" y1="0" x2="1" y2="0" gradientUnits="userSpaceOnUse" gradientTransform="matrix(44.4014,124.308,-124.308,44.4014,413.941,114.027)"><stop offset="0%" style="stop-color:rgb(255,0,85);stop-opacity:1"/><stop offset="100%" style="stop-color:rgb(255,149,0);stop-opacity:1"/></linearGradient>
        <linearGradient id="_Linear7" x1="0" y1="0" x2="1" y2="0" gradientUnits="userSpaceOnUse" gradientTransform="matrix(44.4014,124.308,-124.308,44.4014,413.941,114.027)"><stop offset="0%" style="stop-color:rgb(255,0,85);stop-opacity:1"/><stop offset="100%" style="stop-color:rgb(255,149,0);stop-opacity:1"/></linearGradient>
        <linearGradient id="_Linear8" x1="0" y1="0" x2="1" y2="0" gradientUnits="userSpaceOnUse" gradientTransform="matrix(44.4014,124.308,-124.308,44.4014,413.941,114.027)"><stop offset="0%" style="stop-color:rgb(255,0,85);stop-opacity:1"/><stop offset="100%" style="stop-color:rgb(255,149,0);stop-opacity:1"/></linearGradient>
        <linearGradient id="_Linear9" x1="0" y1="0" x2="1" y2="0" gradientUnits="userSpaceOnUse" gradientTransform="matrix(44.4014,124.308,-124.308,44.4014,413.941,114.027)"><stop offset="0%" style="stop-color:rgb(255,0,85);stop-opacity:1"/><stop offset="100%" style="stop-color:rgb(255,149,0);stop-opacity:1"/></linearGradient>
        <linearGradient id="_Linear10" x1="0" y1="0" x2="1" y2="0" gradientUnits="userSpaceOnUse" gradientTransform="matrix(44.4014,124.308,-124.308,44.4014,413.941,114.027)"><stop offset="0%" style="stop-color:rgb(255,0,85);stop-opacity:1"/><stop offset="100%" style="stop-color:rgb(255,149,0);stop-opacity:1"/></linearGradient>
        <linearGradient id="_Linear11" x1="0" y1="0" x2="1" y2="0" gradientUnits="userSpaceOnUse" gradientTransform="matrix(44.4014,124.308,-124.308,44.4014,413.941,114.027)"><stop offset="0%" style="stop-color:rgb(255,0,85);stop-opacity:1"/><stop offset="100%" style="stop-color:rgb(255,149,0);stop-opacity:1"/></linearGradient>
    </defs>
</svg>
